# xmcd
# 
# Track frame offsets:
#     150
#     18877
#     35335
#     58115
#     80583
#     100075
#     114161
#     133528
#     158265
#     179136
#     192545
#     214680
#     228734
#     249984
# 
# Disc length: 3609
# 
# Revision: 2
# Processed by: cddbd v1.5.2PL0 Copyright (c) Steve Scherf et al.
# Submitted via: fre:ac v1.0.27
# 
DISCID=b40e170e
DTITLE=Various Artist - Gueen of the Damn
DYEAR=2002
DGENRE=Soundtrack
TTITLE0=Queen Of The Damned (by Flea) - Wayne Static - Not Meant For Me
TTITLE1=Queen Of The Damned (by Flea) - David Draiman - Forsaken
TTITLE2=Queen Of The Damned (by Flea) - Chester Bennington - System
TTITLE3=Queen Of The Damned (by Flea) - Deftones - Change (In The House Of Flies)
TTITLE4=Queen Of The Damned (by Flea) - Marilyn Manson - Redeemer
TTITLE5=Queen Of The Damned (by Flea) - Papa Roach - Dead Cell
TTITLE6=Queen Of The Damned (by Flea) - Godhead - Penetrate
TTITLE7=Queen Of The Damned (by Flea) - Jay Gordon - Slept So Long
TTITLE8=Queen Of The Damned (by Flea) - Disturbed - Down With The Sickness
TTITLE9=Queen Of The Damned (by Flea) - Static X - Cold
TTITLE10=Queen Of The Damned (by Flea) - Earshot - Headstrong
TTITLE11=Queen Of The Damned (by Flea) - Dry Cell - Body Crumbles
TTITLE12=Queen Of The Damned (by Flea) - Tricky - Excess
TTITLE13=Queen Of The Damned (by Flea) - Kidneythieves - Before I'm Dead
EXTD=YEAR: 2002
EXTT0=
EXTT1=
EXTT2=
EXTT3=
EXTT4=
EXTT5=
EXTT6=
EXTT7=
EXTT8=
EXTT9=
EXTT10=
EXTT11=
EXTT12=
EXTT13=
PLAYORDER=
